<?xml version="1.0" encoding="UTF-8" standalone="no"?>
<svg
   xmlns:dc="http://purl.org/dc/elements/1.1/"
   xmlns:cc="http://creativecommons.org/ns#"
   xmlns:rdf="http://www.w3.org/1999/02/22-rdf-syntax-ns#"
   xmlns:svg="http://www.w3.org/2000/svg"
   xmlns="http://www.w3.org/2000/svg"
   viewBox="0 0 2400 2400"
   height="2400"
   width="2400"
   xml:space="preserve"
   id="svg2"
   version="1.1"><metadata
     id="metadata8"><rdf:RDF><cc:Work
         rdf:about=""><dc:format>image/svg+xml</dc:format><dc:type
           rdf:resource="http://purl.org/dc/dcmitype/StillImage" /></cc:Work></rdf:RDF></metadata><defs
     id="defs6" /><g
     transform="matrix(1.3333333,0,0,-1.3333333,0,2400)"
     id="g10"><g
       transform="scale(0.1)"
       id="g12"><g
         transform="scale(1.10429)"
         id="g14"><path
           id="path16"
           style="fill:#ffffff;fill-opacity:1;fill-rule:nonzero;stroke:none"
           d="M 16300,0 H 0 V 16300 H 16300 V 0" /></g><g
         transform="scale(1.04294)"
         id="g18"><path
           id="path20"
           style="fill:#ffa726;fill-opacity:1;fill-rule:nonzero;stroke:none"
           d="M 16300,8629.41 C 16300,4393.04 12865.8,958.824 8629.41,958.824 4393.06,958.824 958.824,4393.04 958.824,8629.41 958.824,12865.8 4393.06,16300 8629.41,16300 12865.8,16300 16300,12865.8 16300,8629.41" /></g><g
         transform="scale(1.04294)"
         id="g22"><path
           id="path24"
           style="fill:#f57c00;fill-opacity:1;fill-rule:nonzero;stroke:none"
           d="m 14158.3,10780.2 c -581.6,590.9 -1172.8,1172.6 -1759,1758.9 -71.3,71.3 -141.1,144.1 -212.5,215.4 -65.8,65.8 -127,144.6 -223.3,164.1 -35.1,7.1 -72,5.1 -107.7,5.1 -153,0 -305.9,0 -458.8,0 -469.3,0 -938.4,0 -1407.69,0 -157.63,0 -315.35,0 -472.98,0 -19.23,0 -53.14,-6.8 -71.55,0 -33.02,12.2 -67.89,67.3 -92.8,92.2 -39.62,39.6 -79.68,78.8 -119.3,118.4 -67.18,67.2 -131.19,134.1 -212.85,184.2 -319.11,195.8 -741.16,118.6 -975.9,-170.6 -27.05,-33.3 -51.36,-68.9 -72.52,-106.3 -14.17,-25 -33.88,-104.6 -54.33,-117.9 -3.76,-2.5 -13.48,1.1 -17.76,0 -36.95,-9.7 -90.07,0 -128.01,0 -420.27,0 -840.53,0 -1260.79,0 -372.02,0 -744.03,0 -1116.04,0 -158.26,0 -296.22,-78.3 -301.52,-254.9 -1.1,-36.4 0,-73.1 0,-109.5 0,-216.3 0,-432.5 0,-648.8 0,-362.6 0,-725.2 0,-1087.8 0,-455.3 0,-910.59 0,-1365.91 0,-492.2 0,-984.39 0,-1476.6 0,-480.17 0,-960.26 0,-1440.44 0,-412.2 0,-824.49 0,-1236.79 0,-290.8 0,-581.62 0,-872.43 0,-115.54 -4.02,-231.84 0,-347.28 5.65,-162.91 166.35,-271.45 272.22,-377.3 145.21,-145.17 291.21,-289.76 436.49,-435.02 293.13,-293.11 585.61,-587.09 878.73,-880.2 469.99,-469.92 936.03,-944.44 1407.9,-1412.633 178.79,-12.464 359.15,-19.273 541.11,-19.273 4236.39,0 7670.59,3434.216 7670.59,7670.586 0,2.54 -0.1,5.05 -0.1,7.59 -127.5,128.1 -255.9,255.43 -382.8,384.24 -581.6,590.97 -1177.3,1167.96 -1758.8,1758.96" /></g><path
         id="path26"
         style="fill:#eeeeee;fill-opacity:1;fill-rule:nonzero;stroke:none"
         d="M 12161.4,12951.8 H 5838.57 V 4521.3 h 6322.83 v 8430.5" /><path
         id="path28"
         style="fill:#dedede;fill-opacity:1;fill-rule:nonzero;stroke:none"
         d="M 5838.57,12951.8 12161.4,6738 v 6213.8 z" /><path
         id="path30"
         style="fill:#5d4037;fill-opacity:1;fill-rule:nonzero;stroke:none"
         d="m 8257.08,12951.8 c 110.63,-305.6 400.42,-526.9 742.92,-526.9 342.5,0 632.29,221.3 742.92,526.9 H 12161.4 V 4521.3 H 5838.57 v 8430.5 z m 742.92,526.9 c 147.55,0 263.45,-115.9 263.45,-263.5 0,-147.5 -115.9,-263.4 -263.45,-263.4 -147.55,0 -263.45,115.9 -263.45,263.4 0,147.6 115.9,263.5 263.45,263.5 z m 3424.9,0 H 9742.92 c -110.63,305.6 -400.42,526.9 -742.92,526.9 -342.5,0 -632.29,-221.3 -742.92,-526.9 H 5575.12 c -147.55,0 -263.45,-115.9 -263.45,-263.5 V 4257.9 c 0,-147.6 115.9,-263.5 263.45,-263.5 h 6849.78 c 147.5,0 263.4,115.9 263.4,263.5 v 8957.3 c 0,147.6 -115.9,263.5 -263.4,263.5" /><path
         id="path32"
         style="fill:#14a9a2;fill-opacity:1;fill-rule:nonzero;stroke:none"
         d="m 7145.86,10201.7 -920.8,877.6 363.48,381.4 539.41,-514.1 1028.17,1078.8 381.39,-363.5 -1391.65,-1460.2" /><path
         id="path34"
         style="fill:#546e7a;fill-opacity:1;fill-rule:nonzero;stroke:none"
         d="M 11634.5,10844.2 H 9000 v 526.9 h 2634.5 v -526.9" /><path
         id="path36"
         style="fill:#546e7a;fill-opacity:1;fill-rule:nonzero;stroke:none"
         d="M 11634.5,8209.64 H 9000 v 526.91 h 2634.5 v -526.91" /><path
         id="path38"
         style="fill:#dc332c;fill-opacity:1;fill-rule:nonzero;stroke:none"
         d="M 7999.33,7587 6539.1,8978.61 6902.58,9359.99 8362.8,7968.3 7999.33,7587" /><path
         id="path40"
         style="fill:#dc332c;fill-opacity:1;fill-rule:nonzero;stroke:none"
         d="M 6945.83,7561.6 6564.44,7925.1 7956.08,9385.32 8337.47,9021.85 6945.83,7561.6" /><path
         id="path42"
         style="fill:#14a9a2;fill-opacity:1;fill-rule:nonzero;stroke:none"
         d="m 7155.83,4939.1 -899.44,899.5 372.54,372.5 526.9,-526.9 L 8209.64,6738 8582.18,6365.5 7155.83,4939.1" /><path
         id="path44"
         style="fill:#546e7a;fill-opacity:1;fill-rule:nonzero;stroke:none"
         d="M 11634.5,5575.1 H 9000 V 6102 h 2634.5 v -526.9" /><path
         id="path46"
         style="fill:#452f29;fill-opacity:1;fill-rule:nonzero;stroke:none"
         d="M 12414.3,12951.8 V 4279 H 5585.67 v 8672.8 h 252.9 V 4521.3 h 6322.83 v 8430.5 h 252.9" /></g></g></svg>