<?xml version="1.0" encoding="utf-8"?>
<svg viewBox="0 0 500 500" xmlns="http://www.w3.org/2000/svg">
  <g transform="matrix(1, 0, 0, 1, 35.085618, -125.200006)">
    <g>
      <g transform="matrix(1, 0, 0, 1, -85.688225, 75.964752)">
        <circle style="fill:#9DBBB3;" cx="297.64" cy="297.641" r="242.988"/>
      </g>
      <g transform="matrix(1, 0, 0, 1, -85.688225, 75.964752)">
        <g>
          <g>
            <g>
              <path style="fill:#EADE9F;" d="M210.37,148.594c0,0-0.185,0.422-0.514,1.231l0.812-0.812L210.37,148.594z"/>
            </g>
          </g>
        </g>
        <g>
          <path style="fill:#D4EFFC;" d="M393.044,231.193c1.828-31.661,16.355-82.595,16.355-82.595l-13.247,15.625l-8.782-15.785 l-10.904,15.785l-11.235-15.785l-10.904,15.785l-11.234-15.785l-10.904,15.785l-11.235-15.785l-10.904,15.785l-11.235-15.785 l-10.904,15.785l-11.234-15.785l-3.989,5.773l-6.916,10.012l-11.234-15.785l-8.424,12.195l-2.48,3.59l-11.235-15.785 l-10.904,15.785l-10.825-15.211l-0.812,0.812c-2.76,6.797-15.737,41.137-15.841,86.275 c-0.098,42.335,13.982,69.453,13.084,112.85c-1.153,55.72-19.626,97.119-19.626,97.119l15.811-15.785l6.328,15.785 l10.904-15.785l11.235,15.785l10.904-15.785l11.234,15.785l10.904-15.785l11.235,15.785l10.904-15.785l11.235,15.785 l10.904-15.785l11.234,15.785l10.904-15.785l11.235,15.785l10.904-15.785l11.234,15.785l8.023-11.615l0.131-0.189l2.75-3.98 l10.715,15.055l0.944-0.942c3.328-7.247,18.438-42.845,18.98-92.993C406.686,299.816,390.685,272.062,393.044,231.193z"/>
        </g>
        <g>
          <g>
            <g>
              <path style="fill:#EADE9F;" d="M387.147,444.396l-0.944,0.943l0.298,0.419C386.502,445.759,386.734,445.295,387.147,444.396z "/>
            </g>
          </g>
        </g>
        <g>
          <g>
            <g>
              <rect x="257.053" y="234.303" width="107.181" height="4.446"/>
            </g>
          </g>
        </g>
        <g>
          <g>
            <g>
              <rect x="221.231" y="256.239" width="146.635" height="4.447"/>
            </g>
          </g>
        </g>
        <g>
          <g>
            <g>
              <rect x="228.751" y="285.368" width="120.699" height="4.447"/>
            </g>
          </g>
        </g>
        <g>
          <g>
            <g>
              <rect x="233.292" y="309.548" width="111.721" height="4.447"/>
            </g>
          </g>
        </g>
        <g>
          <g>
            <g>
              <rect x="235.108" y="334.286" width="146.635" height="4.447"/>
            </g>
          </g>
        </g>
        <g>
          <g>
            <g>
              <rect x="233.292" y="362.124" width="132.669" height="4.447"/>
            </g>
          </g>
        </g>
        <g>
          <g>
            <g>
              <rect x="227.588" y="388.032" width="119.241" height="4.447"/>
            </g>
          </g>
        </g>
        <g>
          <g>
            <g>
              <path style="fill:#008FD5;" d="M251.298,216.3c0.134,0.521,0.186,1.029,0.158,1.525c-0.029,0.496-0.127,0.947-0.292,1.357 c-0.166,0.41-0.403,0.765-0.712,1.064c-0.309,0.302-0.67,0.507-1.086,0.613c-0.386,0.099-0.806,0.027-1.261-0.211 c-0.455-0.238-0.923-0.573-1.404-1.005c-0.48-0.433-0.962-0.937-1.447-1.512c-0.484-0.576-0.938-1.163-1.364-1.765 c-0.425-0.603-0.816-1.18-1.171-1.733c-0.354-0.553-0.646-1.011-0.87-1.376c-0.314-0.519-0.618-0.996-0.91-1.433 c-0.292-0.436-0.626-1.006-1.004-1.708c-0.215-0.389-0.376-0.682-0.483-0.875c-0.107-0.195-0.195-0.345-0.263-0.45 c-0.067-0.104-0.123-0.189-0.165-0.256c-0.042-0.067-0.096-0.171-0.165-0.308c-0.26,0.266-0.563,0.461-0.91,0.582 s-0.735,0.239-1.166,0.35c-0.077,0.021-0.199,0.09-0.365,0.21c-0.166,0.12-0.355,0.264-0.568,0.429 c-0.211,0.166-0.43,0.338-0.654,0.518c-0.226,0.18-0.443,0.341-0.653,0.483c-0.675,0.44-1.416,0.886-2.219,1.336 c-0.804,0.451-1.647,0.906-2.532,1.365c-0.883,0.46-1.786,0.925-2.709,1.395c-0.922,0.47-1.846,0.946-2.774,1.428 c-0.102,0.048-0.185,0.114-0.245,0.196c-0.062,0.081-0.128,0.271-0.2,0.567s-0.176,0.751-0.315,1.363 c-0.139,0.612-0.333,1.485-0.585,2.616c-0.292,1.297-0.591,2.434-0.898,3.411c-0.308,0.979-0.615,1.83-0.922,2.553 c-0.292,0.718-0.648,1.298-1.069,1.739c-0.42,0.44-0.9,0.73-1.439,0.869c-0.709,0.182-1.372,0.224-1.987,0.127 c-0.616-0.098-1.161-0.286-1.634-0.564c-0.475-0.277-0.863-0.611-1.168-1c-0.305-0.388-0.505-0.77-0.602-1.145 c-0.181-0.709-0.085-1.261,0.29-1.657c0.374-0.396,0.931-0.788,1.668-1.177c-0.005-0.021,0.04-0.199,0.135-0.534 c0.094-0.335,0.209-0.72,0.344-1.155c0.135-0.434,0.267-0.861,0.397-1.283c0.13-0.422,0.217-0.739,0.261-0.951 c0.312-1.279,0.64-2.611,0.983-4c0.341-1.387,0.702-2.973,1.082-4.758l0.009,0.031c0.197-0.895,0.355-1.635,0.477-2.222 c0.121-0.586,0.238-1.138,0.351-1.655c0.114-0.518,0.236-1.049,0.367-1.593c0.131-0.545,0.291-1.219,0.479-2.023 c0.49-2.057,0.932-3.808,1.325-5.253c0.394-1.443,0.714-2.643,0.963-3.595c0.255-1.31,0.493-2.559,0.714-3.749 c0.098-0.513,0.188-1.029,0.267-1.551c0.08-0.52,0.156-1.021,0.229-1.507c0.072-0.485,0.132-0.939,0.18-1.362 c0.047-0.424,0.074-0.779,0.083-1.07c0.277-6.535,1.072-9.971,2.382-10.307c0.57-0.146,1.047-0.206,1.432-0.184 c0.383,0.024,0.707,0.152,0.972,0.383c0.265,0.232,0.49,0.57,0.677,1.01c0.187,0.44,0.369,1.005,0.545,1.692 c0.165,0.646,0.295,1.151,0.389,1.517c0.094,0.365,0.167,0.685,0.221,0.959c0.055,0.275,0.112,0.549,0.174,0.822 c0.062,0.273,0.137,0.643,0.224,1.108c0.642,0.968,1.28,1.97,1.916,3.007c0.635,1.037,1.248,2.067,1.839,3.094 c0.126,0.233,0.396,0.726,0.81,1.475c0.413,0.749,0.902,1.629,1.465,2.639c0.562,1.012,1.158,2.081,1.783,3.208 c0.626,1.127,1.21,2.188,1.752,3.181c0.542,0.996,1.012,1.853,1.409,2.571c0.399,0.721,0.655,1.177,0.771,1.368 c0.5,1.116,1.557,2.898,3.171,5.35c0.208,0.304,0.387,0.568,0.536,0.796s0.315,0.464,0.501,0.705 c0.185,0.241,0.415,0.515,0.691,0.823c0.275,0.306,0.64,0.701,1.092,1.186C250.164,214.081,251.063,215.384,251.298,216.3z M231.819,204.503c0.62-0.402,1.248-0.819,1.885-1.249c0.637-0.431,1.224-0.847,1.761-1.251 c-0.509-0.957-1.036-1.954-1.582-2.992c-0.544-1.038-1.101-2.068-1.666-3.088c-0.565-1.021-1.127-2.01-1.684-2.967 c-0.558-0.957-1.107-1.82-1.65-2.591c-0.689,2.752-1.351,5.632-1.984,8.637c-0.633,3.006-1.188,6.047-1.664,9.122 c0.445-0.182,0.919-0.352,1.419-0.514c0.501-0.162,0.889-0.345,1.166-0.549c0.373-0.273,0.709-0.515,1.008-0.725 c0.299-0.211,0.602-0.41,0.907-0.6c0.304-0.188,0.62-0.381,0.948-0.576C231.01,204.966,231.389,204.746,231.819,204.503z"/>
            </g>
          </g>
          <g>
            <g>
              <path style="fill:#008FD5;" d="M270.665,197.841c-0.234,0.882-1.053,1.502-2.454,1.861c-0.108,0.028-0.36,0.07-0.755,0.127 c-0.396,0.059-0.826,0.112-1.288,0.166c-0.464,0.051-0.905,0.107-1.323,0.171c-0.42,0.062-0.698,0.112-0.836,0.147 l-3.397,0.872c0.024,0.415,0.079,0.901,0.164,1.456c0.084,0.557,0.215,1.178,0.392,1.865 c0.412,1.606,0.722,2.847,0.931,3.726c0.209,0.88,0.359,1.53,0.451,1.951c0.091,0.421,0.139,0.674,0.146,0.762 c0.005,0.087,0.011,0.142,0.017,0.162c0.241,0.937,0.258,1.634,0.054,2.085s-0.715,0.782-1.531,0.992 c-0.493,0.127-0.911,0.179-1.253,0.154c-0.342-0.022-0.635-0.137-0.876-0.341s-0.449-0.502-0.622-0.891 c-0.174-0.388-0.336-0.874-0.485-1.458c-0.091-0.354-0.174-0.771-0.248-1.251c-0.074-0.481-0.167-1.085-0.279-1.812 s-0.259-1.601-0.438-2.62c-0.179-1.021-0.415-2.26-0.706-3.717l-0.44,0.112c-0.247,0.064-0.518,0.141-0.816,0.227 c-0.298,0.088-0.606,0.183-0.924,0.287c-0.318,0.104-0.638,0.202-0.959,0.296c-0.321,0.093-0.628,0.177-0.92,0.252 l-2.362,0.972c-0.324,0.084-0.653,0.085-0.984,0.003c-0.333-0.081-0.646-0.228-0.938-0.441 c-0.293-0.214-0.554-0.48-0.784-0.798c-0.23-0.319-0.396-0.676-0.497-1.072c-0.059-0.23-0.085-0.522-0.078-0.881 c0.007-0.356,0.058-0.702,0.152-1.037c0.095-0.336,0.235-0.639,0.42-0.908c0.186-0.27,0.424-0.442,0.717-0.518 c0.231-0.06,0.507-0.118,0.828-0.178c0.321-0.061,0.637-0.114,0.945-0.159c0.309-0.046,0.579-0.083,0.81-0.109 c0.23-0.025,0.362-0.042,0.393-0.05l3.721-0.954l0.731-0.321c-0.028-0.236-0.066-0.482-0.115-0.736 c-0.049-0.253-0.102-0.496-0.162-0.725c-0.122-0.48-0.271-1.008-0.443-1.586c-0.172-0.577-0.38-1.245-0.625-2.005 c-0.175-0.555-0.325-1.027-0.45-1.417c-0.124-0.39-0.226-0.72-0.303-0.988s-0.141-0.485-0.19-0.651 c-0.052-0.164-0.089-0.299-0.116-0.403c-0.053-0.208-0.138-0.598-0.251-1.168c-0.113-0.571-0.169-1.172-0.167-1.807 c0-0.633,0.117-1.224,0.346-1.771c0.229-0.548,0.652-0.9,1.268-1.059c0.631-0.162,1.282,0.193,1.949,1.066 c0.557,0.701,0.903,1.312,1.037,1.832c0.117,0.46,0.259,1.09,0.423,1.891c0.164,0.803,0.321,1.606,0.471,2.411 c0.149,0.807,0.289,1.543,0.419,2.209c0.129,0.666,0.221,1.104,0.274,1.312l0.256,0.999c0.053,0.21,0.104,0.407,0.152,0.595 s0.128,0.435,0.239,0.738c0.221-0.034,0.478-0.089,0.771-0.164c0.293-0.074,0.632-0.161,1.018-0.261 c0.199-0.052,0.457-0.122,0.77-0.215c0.313-0.091,0.66-0.195,1.041-0.316c0.379-0.118,0.784-0.238,1.212-0.36 c0.43-0.122,0.859-0.236,1.291-0.348c0.863-0.221,1.586-0.328,2.171-0.323s1.072,0.142,1.46,0.409 c0.388,0.266,0.706,0.656,0.953,1.17c0.247,0.517,0.472,1.168,0.675,1.959L270.665,197.841z"/>
            </g>
          </g>
        </g>
        <g>
          <g>
            <circle style="fill:#FFFFFF;" cx="363.378" cy="198.913" r="18.365"/>
          </g>
        </g>
        <g style="opacity:0.1;">
          <path style="fill:#474C55;" d="M375.488,430.284l10.715,15.055l0.944-0.942c3.328-7.247,18.438-42.845,18.98-92.993 c0.558-51.587-15.443-79.341-13.084-120.21c1.828-31.661,16.355-82.595,16.355-82.595l-13.247,15.625l-8.782-15.785 l-10.904,15.785l-11.235-15.785l-10.904,15.785l-11.234-15.785l-10.904,15.785l-11.235-15.785l-10.904,15.785l-11.235-15.785 l-10.904,15.785l-11.234-15.785l-3.989,5.773l-6.916,10.012l-11.234-15.785l-8.424,12.195 c41.983,44.688,115.407,140.59,126.494,273.82l0.131-0.189L375.488,430.284z"/>
        </g>
        <g>
          <path d="M181.828,454.271l3.986-8.942c0.184-0.411,18.338-41.74,19.469-96.416c0.458-22.124-3.079-40.33-6.5-57.936 c-3.261-16.785-6.632-34.141-6.584-54.881c0.105-45.584,13.326-80.432,15.975-86.955l0.138-0.341l2.591-2.591l10.569,14.851 l10.904-15.786l11.234,15.786l10.904-15.786l11.235,15.786l10.904-15.786l11.235,15.786l10.904-15.786l11.234,15.786 l10.904-15.786l11.235,15.786l10.904-15.786l11.234,15.786l10.904-15.786l11.234,15.786l11.093-16.059l8.927,16.046 l16.989-20.039l-2.307,8.088c-0.145,0.508-14.494,51.106-16.289,82.202c-1.157,20.056,2.201,37.141,5.756,55.228 c3.744,19.04,7.614,38.729,7.331,64.896c-0.549,50.734-16.046,86.98-19.147,93.731l-0.136,0.296l-2.693,2.692l-10.458-14.695 l-10.904,15.785l-11.234-15.785l-10.904,15.785l-11.235-15.785l-10.904,15.785l-11.234-15.785l-10.904,15.785l-11.235-15.785 l-10.904,15.785l-11.235-15.785l-10.904,15.785l-11.234-15.785l-10.904,15.785l-11.234-15.785l-11.354,16.437l-6.563-16.371 L181.828,454.271z M309.049,427.121l11.234,15.784l10.905-15.784l11.234,15.784l10.904-15.784l11.234,15.784l10.904-15.784 l10.698,15.03c4.138-9.433,17.64-43.742,18.148-90.768c0.279-25.794-3.554-45.297-7.262-64.156 c-3.601-18.32-7.003-35.623-5.819-56.139c1.389-24.052,10.147-59.463,14.275-75.09l-9.666,11.4l-8.637-15.524l-10.715,15.513 l-11.234-15.786l-10.904,15.786l-11.234-15.786l-10.904,15.786l-11.235-15.786l-10.904,15.786l-11.235-15.786l-10.904,15.786 l-11.234-15.786l-10.904,15.786l-11.235-15.786l-10.904,15.786l-11.235-15.786l-10.904,15.786l-10.703-15.039 c-3.705,9.625-14.885,42.116-14.982,83.757c-0.047,20.386,3.291,37.565,6.518,54.178c3.457,17.794,7.031,36.193,6.566,58.705 c-0.851,41.138-11.228,74.851-16.602,89.682l11.633-11.614l6.094,15.199l10.455-15.134l11.234,15.784l10.904-15.784 l11.234,15.784l10.905-15.784l11.234,15.784l10.904-15.784l11.235,15.784L309.049,427.121z"/>
        </g>
      </g>
    </g>
  </g>
</svg>